Sanctuary S3E13 WEB-DL DD5.1 ENG+NL Subs

Verenigde Staten / Canada ~ 60 minuten ~ geschreven door Damian Kindler ~ met Amanda Tapping, Robin Dunne en Christopher Heyerdahl.

Uitkijkend naar een stil, 'normaal' avondje uit met Abby, worden Will en zijn date onderweg naar het restaurant ontvoerd door een wanhopige bendeleider die de dood tegemoet ziet zonder hun hulp. Dan, vanwege het herkennen van de ontvoerders identiteit, stopt Magnus alle pogingen om hun te redden.

Bestandsformaat: .MKV
Bestandsgrootte: 1,34 GB
Taal: Engels in DD5.1
Ondertitelingen: Engels en Nederlands ~ custom door r3po (in te stellen)
Categorie : Serie
Formaat : NVT
Bron : WEB-DL (te vergelijken met HDTV, doch zonder reclame of logo's)
Menu: Nee
Extra's: Nee
Genre : Science-Fiction ~ Misdaad ~ Mysterie
Weblink :  http://www.imdb.com/title/tt0965394/

~~~~~~~~~~~~~~~~~~~~~~
USA / Canada ~ 60 minutes ~ written by Damian Kindler ~ with Amanda Tapping, Robin Dunne and Christopher Heyerdahl

Looking to share a quiet, "normal" evening out with Abby, Will and his date are abducted en route to the restaurant by a desperate gang leader who faces certain death without their help. Then, upon learning the abductor's identity, Magnus suddenly ceases all attempts at rescue. 

File Format: .MKV
File size: 1.34 GB
Language: English in DD5.1
Subtitles: English and Dutch ~ custom (selectable)
Category : Series
Format : -
Source : WEB-DL (compairable with HDTV, though without the advertisements and logos)
Menu: No
Extras: No
Genre : Science-Fiction ~ Crime ~ Mystery
Weblink :  http://www.imdb.com/title/tt0965394/

Video and audio information:
~~~~~~~~~~~~~~~~~~~~~~
Video
ID                               : 1
Format                           : AVC
Format/Info                      : Advanced Video Codec
Format profile                   : High@L3.1
Format settings, CABAC           : No
Format settings, ReFrames        : 2 frames
Format settings, GOP             : M=2, N=54
Codec ID                         : V_MPEG4/ISO/AVC
Duration                         : 45mn 23s
Bit rate                         : 3 886 Kbps
Width                            : 1 280 pixels
Height                           : 720 pixels
Display aspect ratio             : 16:9
Frame rate                       : 23.976 fps
Color space                      : YUV
Chroma subsampling               : 4:2:0
Bit depth                        : 8 bits
Scan type                        : Progressive
Bits/(Pixel*Frame)               : 0.176
Stream size                      : 1.23 GiB (89%)
Language                         : English
Color primaries                  : BT.709-5, BT.1361, IEC 61966-2-4, SMPTE RP177
Transfer characteristics         : BT.709-5, BT.1361
Matrix coefficients              : BT.709-5, BT.1361, IEC 61966-2-4 709, SMPTE RP177

Audio
ID                               : 2
Format                           : AC-3
Format/Info                      : Audio Coding 3
Mode extension                   : CM (complete main)
Codec ID                         : A_AC3
Duration                         : 45mn 23s
Bit rate mode                    : Constant
Bit rate                         : 384 Kbps
Channel(s)                       : 6 channels
Channel positions                : Front: L C R, Side: L R, LFE
Sampling rate                    : 48.0 KHz
Bit depth                        : 16 bits
Compression mode                 : Lossy
Stream size                      : 125 MiB (9%)
Language                         : English

~~~~~~~~~~~~~~~
Hornigold TBS
~~~~~~~~~~~~~~~